# xmcd
#
# Track frame offsets: 
#        188
#        15525
#        24728
#        42385
#
# Disc length: 697 seconds
#
# Revision: 3
# Processed by: cddbd v1.5.2PL0 Copyright (c) Steve Scherf et al.
# Submitted via: ExactAudioCopy v0.99pb5
#
DISCID=2902b704
DTITLE=Die Toten Hosen - All die ganzen Jahre
DYEAR=1990
DGENRE=Punk Rock
TTITLE0=All die ganzen Jahre
TTITLE1=Yeah, Yeah, Yeah
TTITLE2=Vor dem Sturm
TTITLE3=Altstadt hin und zurück
EXTD=
EXTT0=
EXTT1=
EXTT2=
EXTT3=
PLAYORDER=
